<?xml version="1.0" encoding="UTF-8" standalone="no"?>
<!DOCTYPE svg PUBLIC "-//W3C//DTD SVG 1.1//EN" "http://www.w3.org/Graphics/SVG/1.1/DTD/svg11.dtd">
<svg width="100%" height="100%" viewBox="0 0 4000 4000" version="1.1" xmlns="http://www.w3.org/2000/svg" xmlns:xlink="http://www.w3.org/1999/xlink" xml:space="preserve" xmlns:serif="http://www.serif.com/" style="fill-rule:evenodd;clip-rule:evenodd;stroke-linejoin:round;stroke-miterlimit:2;">
    <g transform="matrix(2.57198,0,0,2.57198,-13003.9,-3063.58)">
        <g transform="matrix(0.389016,0,0,0.389016,5055.59,1190.72)">
            <path d="M1939.59,436.566C1946.71,408.132 1951.05,379.924 1950.94,353.533C1950.45,231.296 1839.39,203.273 1838.02,101.12C1836.85,14.249 1974.77,1.162 2010.13,1.081C2047.92,0.993 2189.92,9.63 2191.27,104.77C2192.68,203.874 2063.73,276.581 2064.03,353.125C2064.12,374.159 2071.51,404.205 2082.6,437.698C2245.7,446.361 2402.19,480.07 2548.39,535.072C2564.93,512.463 2578.95,489.111 2588.57,465.731C2635.13,352.57 2543.38,283.997 2581.4,189.058C2613.74,108.323 2746.1,149.223 2778.78,162.735C2813.71,177.177 2941.48,239.721 2906.13,328.17C2869.31,420.303 2722.29,437.949 2693.14,508.81C2685.38,527.652 2680.7,556.92 2678.01,590.695C2819.84,659.335 2949.74,748.776 3063.82,855.089C3090.01,839.606 3114,822.206 3133.23,802.813C3219.31,716.043 3160.6,617.71 3231.85,544.515C3292.44,482.271 3399.2,570.53 3424.26,595.475C3451.05,622.134 3545.33,728.635 3479.03,796.856C3409.96,867.918 3267.38,828.148 3213.48,882.483C3198.16,897.931 3181.55,925.727 3165.18,958.686L3166.36,960.007C3182.98,978.712 3199.18,997.787 3214.91,1017.25C3246.42,1056.24 3276.06,1096.74 3303.69,1138.57C3330.56,1179.24 3355.52,1221.16 3378.47,1264.16C3389.99,1285.74 3400.99,1307.61 3411.5,1329.7L3412.35,1331.51C3442.31,1327.27 3470.99,1320.43 3496.09,1309.97C3608.89,1262.93 3592.51,1149.68 3686.42,1109.49C3766.28,1075.3 3830.88,1197.7 3844.42,1230.33C3858.89,1265.2 3904.97,1399.64 3817.54,1437.14C3726.47,1476.21 3610.16,1384.81 3539.52,1414.27C3519.95,1422.43 3494.73,1440.94 3467.77,1464.2C3521.3,1611.18 3553.39,1768.42 3560.25,1932.14C3589.79,1939.75 3619.13,1944.43 3646.52,1944.32C3768.74,1943.83 3796.76,1832.75 3898.9,1831.38C3985.75,1830.21 3998.84,1968.15 3998.92,2003.52C3999.01,2041.32 3990.37,2183.33 3895.25,2184.69C3796.16,2186.1 3723.46,2057.12 3646.93,2057.43C3625.34,2057.52 3594.26,2065.31 3559.71,2076.89L3559.61,2078.94C3558.24,2105.43 3556.25,2131.89 3553.56,2158.28C3548.43,2208.73 3540.85,2258.93 3530.83,2308.64C3520.48,2359.99 3507.52,2410.82 3492.03,2460.86C3484,2486.8 3475.27,2512.52 3465.9,2538.01L3465.14,2540.07C3489.09,2558.04 3513.95,2573.29 3538.85,2583.53C3651.88,2630.04 3720.47,2538.15 3815.3,2576.12C3895.93,2608.42 3854.96,2740.93 3841.43,2773.65C3826.97,2808.62 3764.37,2936.55 3676.02,2901.25C3584,2864.48 3566.5,2717.35 3495.72,2688.23C3475.98,2680.11 3444.78,2675.37 3408.93,2672.78C3345.07,2806.01 3262.87,2928.82 3165.6,3037.95C3181.45,3065.15 3199.36,3090.09 3219.39,3109.96C3306.15,3196.03 3404.49,3137.31 3477.68,3208.55C3539.91,3269.13 3451.64,3375.9 3426.69,3400.97C3400.03,3427.75 3293.52,3522.05 3225.31,3455.75C3154.25,3386.69 3194.04,3244.11 3139.71,3190.22C3124.3,3174.93 3096.61,3158.37 3063.78,3142.06C2953.15,3245.16 2827.58,3332.41 2690.7,3400.2C2694.95,3428.69 2701.63,3455.9 2711.61,3479.85C2758.6,3592.54 2871.94,3576.09 2912.1,3669.9C2946.26,3749.68 2823.73,3814.33 2791.07,3827.88C2756.16,3842.36 2621.59,3888.51 2584.12,3801.16C2545.09,3710.18 2636.64,3593.89 2607.21,3523.33C2599.59,3505.06 2582.93,3481.87 2561.8,3456.92C2413.65,3514.24 2254.67,3549.61 2088.82,3559.07C2081.04,3588.99 2076.24,3618.73 2076.35,3646.47C2076.85,3768.7 2187.9,3796.73 2189.28,3898.88C2190.45,3985.75 2052.53,3998.84 2017.17,3998.92C1979.37,3999.01 1837.38,3990.37 1836.03,3895.23C1834.62,3796.13 1963.57,3723.42 1963.26,3646.88C1963.17,3625.5 1955.55,3594.83 1944.16,3560.71L1943.18,3560.68C1916.59,3559.73 1890.02,3558.15 1863.51,3555.88C1813.66,3551.6 1764.02,3544.94 1714.81,3535.9C1663.16,3526.42 1612,3514.31 1561.59,3499.64C1534.7,3491.81 1508.04,3483.24 1481.61,3473.99L1481.13,3473.83C1461.9,3498.98 1445.55,3525.2 1434.75,3551.46C1388.18,3664.62 1479.93,3733.19 1441.91,3828.13C1409.58,3908.87 1277.21,3867.97 1244.53,3854.45C1209.61,3840.01 1081.83,3777.47 1117.18,3689.02C1154,3596.89 1301.02,3579.24 1330.18,3508.38C1338.5,3488.16 1343.28,3455.94 1345.86,3419.05C1201.9,3352.74 1069.72,3265.17 953.38,3160.42C927.704,3175.7 904.194,3192.85 885.275,3211.92C799.202,3298.69 857.911,3397.02 786.662,3470.22C726.072,3532.46 619.307,3444.2 594.247,3419.26C567.464,3392.6 473.176,3286.1 539.483,3217.88C608.552,3146.82 751.129,3186.59 805.027,3132.25C819.758,3117.4 835.68,3091.14 851.421,3059.87C742.855,2942.59 652.031,2808.66 583.223,2662.35C554.587,2666.62 527.233,2673.32 503.172,2683.35C390.365,2730.39 406.745,2843.64 312.84,2883.84C232.984,2918.02 168.376,2795.62 154.837,2762.99C140.366,2728.12 94.287,2593.68 181.718,2556.18C272.791,2517.11 389.097,2608.51 459.736,2579.05C478.653,2571.17 502.839,2553.61 528.802,2531.43C476.126,2386.37 444.327,2231.26 437.07,2069.8C408.435,2062.59 380.037,2058.2 353.478,2058.3C231.26,2058.8 203.241,2169.87 101.104,2171.25C14.247,2172.42 1.162,2034.48 1.081,1999.11C0.993,1961.31 9.628,1819.29 104.754,1817.94C203.842,1816.53 276.538,1945.5 353.07,1945.19C373.994,1945.11 403.836,1937.79 437.093,1926.8L437.144,1925.66C438.385,1899.14 440.253,1872.65 442.814,1846.23C447.63,1796.52 454.825,1747.05 464.387,1698.03C474.425,1646.57 487.071,1595.62 502.267,1545.44C510.142,1519.44 518.72,1493.65 527.932,1468.09L528.362,1466.9C504.448,1448.97 479.629,1433.75 454.775,1423.53C341.749,1377.02 273.156,1468.91 178.331,1430.93C97.692,1398.64 138.671,1266.13 152.2,1233.41C166.659,1198.44 229.259,1070.51 317.602,1105.81C409.626,1142.58 427.13,1289.71 497.906,1318.83C517.426,1326.86 548.156,1331.58 583.493,1334.19C652.72,1187.14 744.201,1052.59 853.543,934.956C838.579,910.083 821.84,887.314 803.273,868.896C716.513,782.833 618.174,841.553 544.987,770.312C482.75,709.729 571.021,602.955 595.969,577.892C622.631,551.106 729.142,456.806 797.356,523.105C868.411,592.166 828.624,734.747 882.953,788.639C897.79,803.357 924.022,819.263 955.267,834.993C1075.14,727.413 1211.72,638.065 1360.61,571.357C1356.33,544.745 1349.88,519.354 1340.49,496.849C1293.5,384.156 1180.16,400.604 1140,306.794C1105.85,227.019 1228.38,162.371 1261.04,148.818C1295.95,134.334 1430.51,88.192 1467.98,175.535C1507.01,266.515 1415.47,382.803 1444.89,453.371C1452.54,471.705 1469.29,494.987 1490.52,520.023C1632.16,471.305 1782.96,442.385 1939.59,436.566Z" style="fill:rgb(237,60,67);"/>
        </g>
        <g transform="matrix(-1.68156,0.0194372,-0.0194372,-1.68156,8342.45,4507.05)">
            <g opacity="0.2">
                <g id="circle833" transform="matrix(0.348194,1.49792e-18,-7.4896e-19,0.348194,770.357,730.022)">
                    <circle cx="1699.7" cy="1707.48" r="93.671"/>
                </g>
                <g id="circle835" transform="matrix(0.301428,2.21237e-20,5.68758e-19,0.301428,1028.64,869.724)">
                    <circle cx="1569" cy="2155.61" r="164.625"/>
                </g>
                <g id="circle837" transform="matrix(0.370944,0,0,0.370944,701.54,791.604)">
                    <circle cx="1923.77" cy="2525.32" r="104.875"/>
                </g>
                <g id="circle839" transform="matrix(0.187408,0,0,0.187408,1235.46,1065.38)">
                    <circle cx="2485.37" cy="1953.82" r="172.094"/>
                </g>
                <g id="circle8391" serif:id="circle839" transform="matrix(0.183259,0,0,0.183259,830.801,1185.47)">
                    <circle cx="2485.37" cy="1953.82" r="172.094"/>
                </g>
                <g id="circle841" transform="matrix(0.431746,0,0,0.431746,618.83,618.83)">
                    <circle cx="2144.1" cy="1513.29" r="41.389"/>
                </g>
                <g id="circle8411" serif:id="circle841" transform="matrix(0.320652,0,0,0.320652,1000,822.788)">
                    <circle cx="2144.1" cy="1513.29" r="41.389"/>
                </g>
                <g id="circle8412" serif:id="circle841" transform="matrix(0.431746,0,0,0.431746,353.652,1040.56)">
                    <circle cx="2144.1" cy="1513.29" r="41.389"/>
                </g>
                <g id="circle8413" serif:id="circle841" transform="matrix(0.431746,0,0,0.431746,300.196,771.909)">
                    <circle cx="2144.1" cy="1513.29" r="41.389"/>
                </g>
                <g id="circle843" transform="matrix(0.226964,0,0,0.226964,1222.74,1217.1)">
                    <circle cx="2044.95" cy="1885.88" r="131.015"/>
                </g>
                <g id="circle845" transform="matrix(0.33076,0,0,0.33076,834.516,979.057)">
                    <circle cx="2246.87" cy="2413.02" r="71.265"/>
                </g>
            </g>
        </g>
    </g>
</svg>
